<mxfile host="app.diagrams.net" agent="Mozilla/5.0 (X11; Linux x86_64; rv:131.0) Gecko/20100101 Firefox/131.0" version="24.7.17">
  <diagram name="Page-1" id="1sPT936aGN_UOpMYto58">
    <mxGraphModel dx="954" dy="577" grid="1" gridSize="10" guides="1" tooltips="1" connect="1" arrows="1" fold="1" page="1" pageScale="1" pageWidth="850" pageHeight="1100" math="0" shadow="0">
      <root>
        <mxCell id="0" />
        <mxCell id="1" parent="0" />
        <mxCell id="IvNel_QEWwxxVgeuqojj-7" style="rounded=0;orthogonalLoop=1;jettySize=auto;html=1;entryX=0;entryY=0.5;entryDx=0;entryDy=0;endArrow=none;endFill=0;" edge="1" parent="1" source="IvNel_QEWwxxVgeuqojj-3" target="IvNel_QEWwxxVgeuqojj-2">
          <mxGeometry relative="1" as="geometry" />
        </mxCell>
        <mxCell id="IvNel_QEWwxxVgeuqojj-8" style="rounded=0;orthogonalLoop=1;jettySize=auto;html=1;endArrow=none;endFill=0;" edge="1" parent="1" source="IvNel_QEWwxxVgeuqojj-3" target="IvNel_QEWwxxVgeuqojj-5">
          <mxGeometry relative="1" as="geometry" />
        </mxCell>
        <mxCell id="IvNel_QEWwxxVgeuqojj-3" value="Пользователь" style="shape=umlActor;verticalLabelPosition=bottom;verticalAlign=top;html=1;" vertex="1" parent="1">
          <mxGeometry x="70" y="280" width="30" height="60" as="geometry" />
        </mxCell>
        <mxCell id="IvNel_QEWwxxVgeuqojj-4" value="" style="swimlane;startSize=0;" vertex="1" parent="1">
          <mxGeometry x="170" y="50" width="530" height="430" as="geometry" />
        </mxCell>
        <mxCell id="IvNel_QEWwxxVgeuqojj-2" value="&lt;div&gt;Генерирование &lt;br&gt;&lt;/div&gt;&lt;div&gt;рекоменд.&lt;/div&gt;&lt;div&gt;письма&lt;br&gt;&lt;/div&gt;" style="ellipse;whiteSpace=wrap;html=1;" vertex="1" parent="IvNel_QEWwxxVgeuqojj-4">
          <mxGeometry x="70" y="140" width="140" height="70" as="geometry" />
        </mxCell>
        <mxCell id="IvNel_QEWwxxVgeuqojj-5" value="Поиск резюме" style="ellipse;whiteSpace=wrap;html=1;" vertex="1" parent="IvNel_QEWwxxVgeuqojj-4">
          <mxGeometry x="60" y="270" width="140" height="70" as="geometry" />
        </mxCell>
        <mxCell id="IvNel_QEWwxxVgeuqojj-6" value="Генерирование резюме по шаблону" style="ellipse;whiteSpace=wrap;html=1;" vertex="1" parent="IvNel_QEWwxxVgeuqojj-4">
          <mxGeometry x="360" y="270" width="140" height="70" as="geometry" />
        </mxCell>
        <mxCell id="IvNel_QEWwxxVgeuqojj-9" value="&amp;lt;&amp;lt;extend&amp;gt;&amp;gt;" style="html=1;verticalAlign=bottom;labelBackgroundColor=none;endArrow=open;endFill=0;dashed=1;rounded=0;exitX=0;exitY=0.5;exitDx=0;exitDy=0;entryX=1;entryY=0.5;entryDx=0;entryDy=0;" edge="1" parent="IvNel_QEWwxxVgeuqojj-4" source="IvNel_QEWwxxVgeuqojj-6" target="IvNel_QEWwxxVgeuqojj-5">
          <mxGeometry width="160" relative="1" as="geometry">
            <mxPoint x="220" y="260" as="sourcePoint" />
            <mxPoint x="380" y="260" as="targetPoint" />
          </mxGeometry>
        </mxCell>
        <mxCell id="IvNel_QEWwxxVgeuqojj-12" style="edgeStyle=orthogonalEdgeStyle;rounded=0;orthogonalLoop=1;jettySize=auto;html=1;dashed=1;endArrow=none;endFill=0;" edge="1" parent="IvNel_QEWwxxVgeuqojj-4" source="IvNel_QEWwxxVgeuqojj-10">
          <mxGeometry relative="1" as="geometry">
            <mxPoint x="330" y="310" as="targetPoint" />
          </mxGeometry>
        </mxCell>
        <mxCell id="IvNel_QEWwxxVgeuqojj-10" value="" style="shape=note2;boundedLbl=1;whiteSpace=wrap;html=1;size=25;verticalAlign=top;align=left;spacingLeft=5;" vertex="1" parent="IvNel_QEWwxxVgeuqojj-4">
          <mxGeometry x="240" y="190" width="180" height="67" as="geometry" />
        </mxCell>
        <mxCell id="IvNel_QEWwxxVgeuqojj-11" value="Условие: подходящее резюме не было найдено" style="resizeWidth=1;part=1;strokeColor=none;fillColor=none;align=left;spacingLeft=5;whiteSpace=wrap;html=1;" vertex="1" parent="IvNel_QEWwxxVgeuqojj-10">
          <mxGeometry width="180" height="80" relative="1" as="geometry" />
        </mxCell>
        <mxCell id="IvNel_QEWwxxVgeuqojj-13" value="Битрикс Мессенджер" style="text;html=1;align=center;verticalAlign=middle;resizable=0;points=[];autosize=1;strokeColor=none;fillColor=none;" vertex="1" parent="IvNel_QEWwxxVgeuqojj-4">
          <mxGeometry x="10" y="10" width="140" height="30" as="geometry" />
        </mxCell>
        <mxCell id="IvNel_QEWwxxVgeuqojj-14" value="Клиент" style="shape=umlActor;verticalLabelPosition=bottom;verticalAlign=top;html=1;" vertex="1" parent="1">
          <mxGeometry x="20" y="450" width="30" height="60" as="geometry" />
        </mxCell>
        <mxCell id="IvNel_QEWwxxVgeuqojj-15" value="HR " style="shape=umlActor;verticalLabelPosition=bottom;verticalAlign=top;html=1;" vertex="1" parent="1">
          <mxGeometry x="110" y="450" width="30" height="60" as="geometry" />
        </mxCell>
        <mxCell id="IvNel_QEWwxxVgeuqojj-16" value="Extends" style="endArrow=block;endSize=16;endFill=0;html=1;rounded=0;exitX=0.5;exitY=0;exitDx=0;exitDy=0;exitPerimeter=0;" edge="1" parent="1" source="IvNel_QEWwxxVgeuqojj-14">
          <mxGeometry width="160" relative="1" as="geometry">
            <mxPoint x="380" y="310" as="sourcePoint" />
            <mxPoint x="80" y="370" as="targetPoint" />
          </mxGeometry>
        </mxCell>
        <mxCell id="IvNel_QEWwxxVgeuqojj-19" value="Extends" style="endArrow=block;endSize=16;endFill=0;html=1;rounded=0;exitX=0.5;exitY=0;exitDx=0;exitDy=0;exitPerimeter=0;" edge="1" parent="1" source="IvNel_QEWwxxVgeuqojj-15">
          <mxGeometry width="160" relative="1" as="geometry">
            <mxPoint x="45" y="460" as="sourcePoint" />
            <mxPoint x="100" y="370" as="targetPoint" />
          </mxGeometry>
        </mxCell>
      </root>
    </mxGraphModel>
  </diagram>
</mxfile>
